<svg id="Calque_1" data-name="Calque 1" xmlns="http://www.w3.org/2000/svg" viewBox="0 0 387.72 99.43"><title>apitep3</title><path d="M45.24,0A1.86,1.86,0,0,1,47,1.73L65.11,96.46c.26,1.46-.4,2.92-1.86,2.92H41.79a1.7,1.7,0,0,1-1.72-1.33L37.42,78.18a1.28,1.28,0,0,0-1.33-1.06H28.94a1.42,1.42,0,0,0-1.19,1.32L25.23,97.92a1.79,1.79,0,0,1-1.72,1.46H1.65c-1.2,0-1.86-.93-1.59-2.26L17.81,1.6C17.94.93,18.61,0,19.4,0ZM33.58,50c-.27-1.86-.53-3.05-.93-3.05s-.66.93-.93,3.05L30,62.54c-.13.66.13,1.33.79,1.33,4.24,0,4.64,0,4.51-1.19Z" transform="translate(0 0)" fill="#0ba88e"/><path d="M77.82,2.26C77.82.93,78.49,0,79.68,0h30.87c6.09,0,25.7,4.37,25.7,29.41,0,12.32-11,24.51-23.71,24.51-6.49,0-7.16,0-7.16,1.59v42c0,1.06-.79,1.86-2.25,1.86H79.94A2.25,2.25,0,0,1,77.82,97Z" transform="translate(0 0)" fill="#bf3000"/><path d="M151.22,99.38a1.91,1.91,0,0,1-1.72-2v-96A1.31,1.31,0,0,1,150.69,0h22.66a1.41,1.41,0,0,1,1.59,1.32V97.65a1.73,1.73,0,0,1-1.59,1.73Z" transform="translate(0 0)" fill="#7193d8"/><path d="M208,99.38a1.9,1.9,0,0,1-1.86-1.86V28.36a1.64,1.64,0,0,0-1.72-1.59H191.23a2.1,2.1,0,0,1-1.72-1.85V1.33c0-.79.4-1.32,1.19-1.32h56.71a1.56,1.56,0,0,1,1.72,1.59V24.92a1.8,1.8,0,0,1-1.85,1.85H234c-.93,0-1.59.66-1.59,1.85v69a1.79,1.79,0,0,1-1.86,1.73Z" transform="translate(0 0)" fill="#ffd500"/><path d="M263.7,1.73A1.86,1.86,0,0,1,265.42,0h47a1.36,1.36,0,0,1,1.32,1.45V25.31a1.36,1.36,0,0,1-1.45,1.33H290.2a.9.9,0,0,0-.93.93V35a1,1,0,0,0,.93.93h10.47a.91.91,0,0,1,.93.93V61a1.19,1.19,0,0,1-1.07,1.2H289.8a.93.93,0,0,0-.92,1.05v7.87a.88.88,0,0,0,.79.93h22.92a1.37,1.37,0,0,1,1.46,1.33V98a1.46,1.46,0,0,1-1.46,1.46H265.16a1.63,1.63,0,0,1-1.46-1.73Z" transform="translate(0 0)" fill="#e84f82"/><path d="M329.28,2.26c0-1.33.66-2.25,1.86-2.25H362c6.09,0,25.7,4.37,25.7,29.41,0,12.32-11,24.51-23.72,24.51-6.49,0-7.15,0-7.15,1.59v42c0,1.06-.79,1.86-2.25,1.86H331.4A2.25,2.25,0,0,1,329.28,97Z" transform="translate(0 0)" fill="#ff8b00"/><polygon points="93.07 14.54 104.17 18.97 114.11 12.33 113.33 24.26 122.7 31.66 111.12 34.6 106.98 45.81 100.61 35.7 88.67 35.23 96.31 26.04 93.07 14.54" fill="#ff8000"/><polygon points="345.07 14.54 356.17 18.97 366.11 12.33 365.33 24.26 374.7 31.66 363.13 34.6 358.98 45.81 352.61 35.7 340.67 35.23 348.31 26.04 345.07 14.54" fill="#bf3000"/></svg>