<?xml version="1.0" encoding="utf-8"?>
<svg viewBox="0 0 93.2249 88.2907" xmlns="http://www.w3.org/2000/svg">
  <g transform="matrix(1, 0, 0, -1, 0, 88.290703)">
    <g transform="">
      <path d="M 84.3273 57.5475 C 109.398 29.6407 76.8176 0.2107 44.4386 0 L 42.4781 0.0645 C 11.1956 0.276 -15.0679 29.6407 10.0016 57.5475 L 9.1038 56.7705 C -13.2334 84.09 29.3096 102.804 38.4693 73.3957 L 37.6421 73.1887 C 44.0696 74.6887 51.3551 74.9032 57.7826 72.975 L 57.0311 73.2218 C 66.1908 102.63 107.778 83.8957 85.4396 56.5777 Z" style="fill: rgb(85, 206, 200); fill-opacity: 1;"/>
      <path d="M 32.5012 28.9087 C 32.5012 32.6362 36.2902 35.658 40.965 35.658 C 45.6397 35.658 49.428 32.6362 49.428 28.9087 C 49.428 25.1805 45.6397 22.1595 40.965 22.1595 C 36.2902 22.1595 32.5012 25.1805 32.5012 28.9087" style="fill: rgb(37, 67, 104); fill-opacity: 1;"/>
      <path d="M 40.8578 32.3368 C 40.8578 33.1056 39.8505 33.7296 38.6078 33.7296 C 37.365 33.7296 36.3578 33.1056 36.3578 32.3368 C 36.3578 31.5674 37.365 30.9441 38.6078 30.9441 C 39.8505 30.9441 40.8578 31.5674 40.8578 32.3368" style="fill: rgb(255, 255, 255); fill-opacity: 1;"/>
      <path d="M 53.2844 20.3159 C 49.1901 17.8462 44.4689 19.0349 39.9636 18.2384 C 39.3659 18.1334 39.0599 17.7569 38.9751 17.3182 C 38.9421 17.1854 38.9219 17.0437 38.9316 16.8824 C 39.1716 12.8279 43.3926 9.4162 47.3211 9.5639 C 52.0896 9.7424 54.7836 14.5349 55.3499 18.7274 C 55.5036 19.8659 54.4566 21.0232 53.2844 20.3159" style="fill: rgb(37, 67, 104); fill-opacity: 1;"/>
      <path d="M 51.7956 40.9752 C 55.5014 39.6139 58.6799 39.3027 62.5851 39.6604 C 65.2686 39.9057 62.6406 43.1449 60.8406 42.9807 C 57.6389 42.6874 55.1759 42.7962 52.1301 43.9152 C 51.3651 44.1964 50.0804 44.2572 49.9019 43.2192 C 49.7264 42.2037 51.0006 41.2677 51.7956 40.9752" style="fill: rgb(37, 67, 104); fill-opacity: 1;"/>
      <path d="M 29.4594 44.1999 C 29.9124 40.9179 28.2827 37.9816 25.8212 37.6426 C 23.3597 37.3029 20.9972 39.6886 20.5449 42.9714 C 20.0919 46.2534 21.7209 49.1896 24.1824 49.5286 C 26.6447 49.8684 29.0064 47.4826 29.4594 44.1999" style="fill: rgb(37, 67, 104); fill-opacity: 1;"/>
    </g>
  </g>
</svg>